<svg height="800px" width="800px" version="1.1" id="Capa_1" xmlns="http://www.w3.org/2000/svg"
    xmlns:xlink="http://www.w3.org/1999/xlink"
    viewBox="0 0 300.5 300.5" xml:space="preserve">
<g>
	<g>
		<path style="fill:#BDC3C7;" d="M94.371,300.5c-1.933,0-3.5-1.567-3.5-3.5v-99.238c0-1.933,1.567-3.5,3.5-3.5s3.5,1.567,3.5,3.5
			V297C97.871,298.933,96.303,300.5,94.371,300.5z"/>
	</g>
	<g>
		<g>
			<path style="fill:#DA768E;" d="M81.655,191.514l12.716-22.024l12.716,22.024c2.191,3.795-0.548,8.539-4.93,8.539H86.585
				C82.203,200.053,79.464,195.309,81.655,191.514z"/>
		</g>
	</g>
	<g>
		<path style="fill:#BDC3C7;" d="M210.201,300.5c-1.933,0-3.5-1.567-3.5-3.5v-88.441c0-1.933,1.567-3.5,3.5-3.5s3.5,1.567,3.5,3.5
			V297C213.701,298.933,212.133,300.5,210.201,300.5z"/>
	</g>
	<g>
		<g>
			<path style="fill:#17AB93;" d="M198.868,202.991l11.332-19.628l11.332,19.628c1.953,3.382-0.488,7.61-4.394,7.61h-13.878
				C199.356,210.601,196.915,206.373,198.868,202.991z"/>
		</g>
	</g>
	<g>
		<g>
			<path style="fill:#F36E81;" d="M276.307,36.359c-1.05,0-2.08-0.42-2.83-1.17c-0.74-0.739-1.17-1.77-1.17-2.83
				c0-1.05,0.43-2.08,1.17-2.819c0.75-0.75,1.78-1.17,2.83-1.17c1.061,0,2.09,0.42,2.83,1.17c0.74,0.739,1.17,1.77,1.17,2.819
				c0,1.061-0.43,2.091-1.17,2.83C278.397,35.939,277.368,36.359,276.307,36.359z"/>
		</g>
	</g>
	<g>
		<g>
			<path style="fill:#F36E81;" d="M259.767,218.3c-1.05,0-2.08-0.43-2.83-1.17c-0.74-0.74-1.17-1.771-1.17-2.83s0.43-2.09,1.17-2.83
				c0.75-0.74,1.78-1.17,2.83-1.17s2.08,0.43,2.83,1.17c0.74,0.75,1.17,1.78,1.17,2.83s-0.43,2.08-1.17,2.83
				C261.847,217.87,260.817,218.3,259.767,218.3z"/>
		</g>
	</g>
	<g>
		<g>
			<path style="fill:#F36E81;" d="M193.607,22.319c-1.71,0-3.38-0.689-4.59-1.899s-1.91-2.891-1.91-4.59
				c0-1.721,0.7-3.391,1.91-4.601s2.88-1.899,4.59-1.899s3.391,0.689,4.601,1.899s1.899,2.88,1.899,4.601
				c0,1.71-0.689,3.38-1.899,4.59S195.317,22.319,193.607,22.319z"/>
		</g>
	</g>
	<g>
		<g>
			<path style="fill:#F36E81;" d="M160.527,203.76c-1.569,0-3.119-0.64-4.239-1.76c-1.12-1.11-1.761-2.66-1.761-4.24
				s0.641-3.12,1.761-4.24s2.659-1.76,4.239-1.76s3.131,0.64,4.25,1.76c1.11,1.12,1.75,2.66,1.75,4.24s-0.64,3.13-1.75,4.24
				C163.647,203.12,162.107,203.76,160.527,203.76z"/>
		</g>
	</g>
	<g>
		<g>
			<path style="fill:#F36E81;" d="M44.748,201.76c-1.051,0-2.08-0.42-2.82-1.17c-0.75-0.74-1.18-1.78-1.18-2.83s0.43-2.08,1.18-2.83
				c0.74-0.74,1.77-1.17,2.82-1.17c1.06,0,2.09,0.43,2.83,1.17c0.75,0.75,1.18,1.78,1.18,2.83c0,1.06-0.43,2.09-1.18,2.83
				C46.828,201.34,45.797,201.76,44.748,201.76z"/>
		</g>
	</g>
	<g>
		<g>
			<path style="fill:#EDB7AB;" d="M20.193,74.178C20.193,33.211,53.404,0,94.371,0s74.178,33.211,74.178,74.178
				s-33.211,103.85-74.178,103.85S20.193,115.146,20.193,74.178z"/>
		</g>
	</g>
	<g style="opacity:0.6;">
		<path style="fill:#BDC3C7;" d="M45.253,74.178c0-36.694,26.651-67.146,61.648-73.103C102.826,0.381,98.644,0,94.371,0
			C53.403,0,20.193,33.211,20.193,74.178c0,40.968,33.211,103.85,74.178,103.85c4.271,0,8.456-0.692,12.53-1.963
			C71.901,165.145,45.253,110.875,45.253,74.178z"/>
	</g>
	<g>
		<g>
			<path style="fill:#82D9C8;" d="M144.093,98.421c0-36.51,29.598-66.108,66.108-66.108s66.108,29.598,66.108,66.108
				s-29.598,92.551-66.108,92.551S144.093,134.931,144.093,98.421z"/>
		</g>
	</g>
	<g style="opacity:0.6;">
		<path style="fill:#BDC3C7;" d="M160.632,98.421c0-33.707,25.234-61.502,57.838-65.575c-2.711-0.338-5.467-0.533-8.27-0.533
			c-36.51,0-66.108,29.598-66.108,66.108c0,36.511,29.598,92.551,66.108,92.551c2.801,0,5.561-0.333,8.27-0.958
			C185.863,182.485,160.632,132.13,160.632,98.421z"/>
	</g>
</g>
</svg>