<svg xmlns="http://www.w3.org/2000/svg" width="1768" height="853" viewBox="0 0 1768 853"
    version="1.1">
    <path d="" stroke="none" fill="#f07c8c" fill-rule="evenodd" />
    <path
        d="M 661.107 1.143 C 596.987 7.846, 536.697 45.804, 502.587 100.946 C 478.283 140.237, 468.174 182.215, 470.904 232.515 C 473.095 272.903, 479.778 304.788, 493.010 338 C 519.157 403.631, 573.820 473.223, 630.689 513.283 C 663.901 536.679, 706.689 556.119, 747.681 566.437 C 761.125 569.821, 768.238 569.853, 771.545 566.545 C 772.895 565.195, 774 563.606, 774 563.013 C 774 560.134, 770.584 554.441, 765.861 549.446 C 758.605 541.774, 750.571 536.063, 728.249 522.708 C 686.245 497.576, 643.620 464.299, 621.581 439.434 C 611.155 427.671, 595.613 406.784, 586.851 392.762 C 578.355 379.165, 562.529 347.274, 557.443 333.500 C 543.520 295.794, 535.980 254.320, 536.008 215.605 C 536.054 153.057, 567.228 99.454, 618.500 73.758 C 642.421 61.769, 668.082 57.005, 697.788 59.036 C 723.215 60.775, 739.929 64.880, 758.500 73.950 C 799.902 94.171, 825.159 131.910, 839.922 195.610 C 848.574 232.942, 857.837 249.009, 870.700 248.996 C 878.498 248.989, 885.240 241.880, 891.563 227 C 893.549 222.325, 898.013 207.250, 901.483 193.500 C 910.424 158.066, 918.043 138.911, 931.047 119.173 C 938.477 107.894, 951.884 93.616, 962.500 85.677 C 972.235 78.397, 991.320 69.006, 1003.487 65.510 C 1030.119 57.857, 1063.740 56.430, 1088.741 61.893 C 1101.217 64.618, 1108.946 67.345, 1121.500 73.452 C 1163.331 93.800, 1193.790 135.478, 1202.022 183.631 C 1208.051 218.894, 1203.510 269.192, 1190.344 313 C 1170.176 380.102, 1124.024 445.799, 1071 482.885 C 1066.875 485.770, 1063.500 488.501, 1063.500 488.954 C 1063.500 489.407, 1066.970 492.099, 1071.212 494.935 C 1080.196 500.945, 1087.547 508.796, 1091.986 517.125 C 1093.991 520.887, 1095.565 522.785, 1096.318 522.349 C 1101.701 519.229, 1119.531 506.497, 1128.500 499.369 C 1148.957 483.109, 1171.628 459.444, 1192.088 432.993 C 1234.851 377.708, 1258.085 325.698, 1267.138 265 C 1270.129 244.944, 1270.867 202.929, 1268.532 185.592 C 1255.901 91.798, 1183.892 17.950, 1090 2.502 C 1076.366 0.259, 1051.755 -0.493, 1037.500 0.898 C 986.890 5.838, 942.480 26.209, 906.753 60.873 C 893.240 73.983, 886.912 81.459, 877.170 95.820 L 870.224 106.059 867.611 101.599 C 862.616 93.076, 849.698 76.598, 840.625 67.176 C 793.679 18.424, 727.758 -5.824, 661.107 1.143 M 626.500 161.662 C 619.150 165.536, 615.348 172.522, 616.247 180.499 C 617.859 194.798, 635.054 201.825, 646.465 192.849 C 652.068 188.441, 654.617 178.410, 651.936 171.315 C 650.489 167.484, 646.174 163.042, 642.282 161.377 C 638.020 159.553, 630.233 159.694, 626.500 161.662 M 736.479 162.430 C 729.708 166.489, 725.970 175.462, 727.965 182.871 C 730.956 193.977, 743.175 199.829, 753.541 195.120 C 771.751 186.849, 765.983 159.999, 746 160.015 C 741.972 160.018, 739.424 160.664, 736.479 162.430 M 985.748 162.069 C 981.124 164.510, 977.307 170.111, 976.414 175.765 C 974.958 184.973, 982.379 195.184, 991.522 196.556 C 999.936 197.817, 1007.972 193.793, 1011.381 186.610 C 1013.375 182.407, 1013.485 173.828, 1011.589 170.200 C 1009.695 166.575, 1005.134 162.367, 1001.685 161.064 C 997.299 159.406, 989.908 159.873, 985.748 162.069 M 1098.481 161.394 C 1094.642 163.066, 1089.209 169.216, 1088.431 172.768 C 1088.102 174.271, 1087.666 176.045, 1087.463 176.711 C 1086.744 179.063, 1089.760 188.116, 1092.114 190.673 C 1095.243 194.070, 1101.620 196.956, 1106 196.956 C 1116.872 196.956, 1126.236 186.210, 1124.568 175.647 C 1122.680 163.697, 1109.599 156.549, 1098.481 161.394 M 644.286 223.701 C 640.711 224.393, 636.222 229.300, 635.463 233.346 C 634.507 238.444, 636.307 242.192, 642.305 247.584 C 659.884 263.389, 685.216 269.490, 708.500 263.525 C 723.436 259.699, 742.844 246.848, 744.893 239.426 C 746.703 232.870, 742.977 226.138, 736.323 223.942 C 731.814 222.453, 728.624 223.654, 721.354 229.576 C 702.403 245.012, 676.568 244.695, 658.516 228.805 C 654.320 225.112, 650.031 222.867, 647.685 223.136 C 647.033 223.211, 645.504 223.465, 644.286 223.701 M 1004.542 223.729 C 998.591 225.241, 994.354 231.742, 995.463 237.657 C 997.158 246.691, 1015.702 259.395, 1034.072 264.107 C 1037.344 264.947, 1044.265 265.471, 1051.500 265.426 C 1062.180 265.361, 1064.495 265.013, 1072.549 262.263 C 1087.564 257.136, 1101.647 247.481, 1104.672 240.242 C 1108.575 230.901, 1098.820 220.456, 1089.503 223.999 C 1087.994 224.573, 1084.835 226.736, 1082.484 228.805 C 1076.830 233.782, 1069.688 237.586, 1062.465 239.467 C 1047.202 243.443, 1030.558 239.405, 1018.516 228.805 C 1012.644 223.636, 1009.461 222.480, 1004.542 223.729 M 747.500 303.320 C 733.172 308.124, 725.056 313.636, 720.261 321.817 C 718.081 325.538, 717.524 327.916, 717.188 334.950 C 716.824 342.572, 717.135 344.609, 719.948 353.020 C 723.412 363.375, 728.167 372.669, 734.068 380.620 L 737.869 385.740 732.684 386.352 C 717.734 388.115, 697.618 396.177, 688.806 403.938 C 676.743 414.561, 675.087 430.915, 684.184 449.573 C 695.216 472.199, 713.876 476.713, 741.765 463.501 C 746.912 461.063, 753.975 457.075, 757.460 454.639 L 763.796 450.210 764.500 455.845 C 765.568 464.393, 769.648 477.551, 774.088 486.763 C 785.303 510.035, 803.304 515.049, 828.899 502.029 C 845.982 493.339, 851.928 480.015, 847.151 461.127 C 844.757 451.659, 837.708 436.786, 832.108 429.387 L 828.303 424.360 837.173 422.683 C 860.835 418.210, 878.198 408.429, 884.155 396.216 C 888.871 386.548, 885.904 369.422, 876.923 354.470 C 866.510 337.132, 849.195 334.364, 824.196 346.042 C 819.629 348.175, 812.938 351.986, 809.328 354.509 C 805.718 357.033, 802.637 358.963, 802.481 358.799 C 802.326 358.634, 801.459 354.535, 800.555 349.688 C 796.358 327.177, 786.638 309.985, 774.591 303.767 C 768.277 300.507, 756.468 300.312, 747.500 303.320 M 952.764 341.996 C 940.845 345.585, 933.032 358.964, 935.815 371.020 C 939.556 387.225, 957.113 395.638, 971.622 388.177 C 985.696 380.940, 989.438 361.881, 979.145 349.856 C 972.876 342.532, 961.871 339.253, 952.764 341.996 M 998.332 411.959 C 983.280 415.544, 971.030 433.706, 963.348 463.825 L 962.500 467.149 956.118 462.022 C 946.925 454.636, 936.122 448.601, 926.478 445.464 C 903.999 438.152, 887.452 447.558, 878.252 472.880 C 872.613 488.401, 876.417 501.913, 889.320 512.190 C 896.432 517.855, 911.292 524.735, 922.033 527.335 C 926.951 528.526, 930.981 529.757, 930.988 530.072 C 930.994 530.386, 928.604 533.650, 925.675 537.325 C 919.782 544.721, 912.218 558.524, 909.415 567 C 906.748 575.062, 906.927 586.221, 909.817 592.152 C 915.791 604.413, 936.579 616.035, 952.432 615.978 C 963.154 615.939, 971.887 610.451, 979.537 598.945 C 984.887 590.897, 990.430 577.770, 992.674 567.833 C 994.093 561.550, 994.396 561.032, 995.964 562.207 C 996.914 562.918, 1000.798 565.845, 1004.595 568.712 C 1017.388 578.368, 1033.445 585, 1044.032 585 C 1055.511 585, 1066.132 577.159, 1073.155 563.500 C 1083.661 543.065, 1082.593 528.875, 1069.688 517.456 C 1062.776 511.339, 1046.554 503.472, 1035.165 500.714 C 1030.138 499.496, 1026.019 498.007, 1026.012 497.405 C 1026.006 496.803, 1026.956 495.453, 1028.125 494.405 C 1033.924 489.207, 1044.619 470.557, 1047.516 460.594 C 1049.695 453.097, 1049.209 441.117, 1046.498 435.500 C 1043.611 429.521, 1036.176 422.835, 1027.248 418.190 C 1015.206 411.925, 1006.422 410.032, 998.332 411.959 M 833.803 538.351 C 820.647 542.028, 811.954 554.441, 813.304 567.622 C 814.775 581.982, 826.585 592.535, 840.932 592.310 C 848.702 592.188, 853.540 590.311, 859.179 585.227 C 871.093 574.488, 871.030 555.457, 859.046 544.653 C 856.699 542.537, 853.329 540.200, 851.557 539.460 C 846.560 537.371, 838.997 536.899, 833.803 538.351 M 1208.402 671.944 C 1196.038 673.886, 1186.080 679.021, 1178.066 687.589 C 1169.775 696.452, 1167.573 702.402, 1167.532 716.052 C 1167.501 726.260, 1167.622 726.851, 1171.253 734.197 C 1177.133 746.095, 1182.861 750.715, 1207.262 763.246 C 1238.018 779.039, 1243.198 782.821, 1247.781 792.832 C 1249.740 797.112, 1250.144 799.339, 1249.806 804.011 C 1248.690 819.434, 1234.343 829.183, 1215 827.661 C 1196.990 826.244, 1185 818.018, 1185 807.079 C 1185 800.130, 1180.357 796, 1172.546 796 C 1167.261 796, 1162.576 798.056, 1160.954 801.086 C 1160.050 802.774, 1159.521 824.693, 1159.945 842.849 C 1160.021 846.110, 1165.277 850.702, 1169.809 851.468 C 1174.268 852.221, 1178.506 850.820, 1182.079 847.413 L 1184.658 844.954 1190.235 847.507 C 1197.351 850.765, 1209.050 853.005, 1218.838 852.983 C 1248.506 852.915, 1272.804 834.673, 1277.175 809.185 C 1280.200 791.547, 1271.941 773.405, 1255.206 760.924 C 1251.518 758.173, 1239.050 751.263, 1227.500 745.568 C 1215.950 739.874, 1204.648 733.857, 1202.385 732.199 C 1197.561 728.664, 1192.990 720.292, 1193.022 715.054 C 1193.113 700.340, 1209.743 691.656, 1228.482 696.537 C 1239.754 699.473, 1244.214 703.820, 1244.592 712.240 C 1244.763 716.046, 1245.411 717.866, 1247.251 719.706 C 1252.307 724.762, 1262.736 724.546, 1267.611 719.285 C 1269.952 716.760, 1270 716.335, 1270 698.043 C 1270 680.474, 1269.877 679.245, 1267.904 677.127 C 1263.571 672.477, 1255.247 671.609, 1248.944 675.152 L 1245.116 677.303 1237.308 674.733 C 1228.649 671.883, 1216.347 670.695, 1208.402 671.944 M 1520.020 674.250 C 1513.905 677.375, 1511.704 680.768, 1511.273 687.737 C 1510.841 694.738, 1513.593 700.249, 1519 703.206 C 1523.606 705.725, 1533.338 705.330, 1537.207 702.467 C 1543.956 697.472, 1546.154 686.537, 1541.742 679.898 C 1539.134 675.974, 1531.969 672, 1527.500 672 C 1525.808 672, 1522.442 673.013, 1520.020 674.250 M 12.756 675.755 C 7.489 679.020, 5.485 687.170, 8.510 693.020 C 10.413 696.699, 13.021 698.099, 19.429 698.881 L 24.500 699.500 24.818 705 C 25.122 710.260, 20.748 796.740, 19.229 815.500 L 18.500 824.500 13.112 825.158 C 4.043 826.264, -0.420 831.097, 0.360 838.966 C 0.712 842.510, 1.542 844.109, 4.387 846.716 L 7.971 850 32.337 850 C 56.065 850, 56.793 849.940, 60.102 847.713 C 70.821 840.500, 64.308 825, 50.557 825 C 44.629 825, 44.672 825.333, 45.910 789.268 C 48.317 719.088, 49.190 707, 51.854 707 C 53.271 707, 54.119 709.631, 68.934 760 C 85.053 814.802, 90.912 832.757, 94.387 838.009 C 97.081 842.079, 103.930 846, 108.348 846 C 115.434 846, 122.953 840.409, 126.502 832.500 C 130.760 823.009, 157.184 741.068, 165.398 711.881 C 167.160 705.622, 169.350 702.865, 170.396 705.590 C 171.002 707.170, 173.030 778.569, 173.346 809.491 L 173.500 824.482 168.429 825.110 C 162.002 825.906, 159.385 827.320, 156.950 831.314 C 153.550 836.890, 155.011 843.503, 160.615 847.912 C 163.139 849.897, 164.447 850, 187.185 850 C 213.113 850, 215.027 849.661, 218.435 844.459 C 220.695 841.010, 220.667 833.947, 218.379 830.456 C 216.269 827.235, 211.439 825, 206.591 825 C 204.681 825, 202.851 824.569, 202.526 824.041 C 201.101 821.736, 195.675 723.513, 196.174 709.061 L 196.500 699.622 200 698.730 C 210.285 696.106, 213.033 683.413, 204.814 676.497 L 201.663 673.846 183.582 674.175 C 167.321 674.471, 165.097 674.722, 161.500 676.665 C 156.139 679.560, 151.527 684.531, 149.129 690 C 148.044 692.475, 141.298 713.400, 134.138 736.500 C 123.203 771.778, 114.597 798.260, 111.471 806.250 C 111.094 807.212, 110.215 808, 109.516 808 C 107 808, 102.550 794.920, 83.371 731.139 C 76.981 709.888, 70.699 690.408, 69.411 687.851 C 66.587 682.246, 61.198 677.596, 55.128 675.528 C 48.330 673.212, 16.583 673.382, 12.756 675.755 M 352.999 676.710 C 350.177 679.231, 349.635 680.458, 349.304 685.082 C 349.070 688.341, 349.436 691.496, 350.222 693 C 351.888 696.189, 357.460 698.996, 362.128 698.998 C 364.123 698.999, 366.264 699.613, 366.885 700.362 C 367.705 701.349, 367.944 718.850, 367.758 764.067 L 367.500 826.411 363.500 827.216 C 356.970 828.531, 353.992 830.115, 352.453 833.091 C 349.490 838.821, 351.665 847.162, 356.613 849.043 C 357.997 849.569, 368.451 850, 379.843 850 C 397.645 850, 400.902 849.763, 403.027 848.310 C 407.650 845.152, 409.313 840.717, 407.855 835.437 C 406.692 831.225, 402.718 828.485, 396.397 827.537 L 392 826.877 392 813.010 C 392 797.843, 392.624 796, 397.755 796 C 400.546 796, 401.243 796.655, 419.779 816.704 L 430.058 827.823 427.101 829.928 C 421.171 834.150, 420.698 842.885, 426.150 847.473 L 429.153 850 450.177 850 L 471.200 850 474.600 846.600 C 477.469 843.731, 478 842.490, 478 838.656 C 478 832.253, 475.116 829.151, 467.771 827.655 C 462.250 826.530, 461.535 825.966, 440.502 806.148 C 428.622 794.954, 419.036 785.434, 419.201 784.992 C 419.515 784.148, 452.171 761.049, 455.780 759.117 C 456.929 758.503, 459.270 758, 460.984 758 C 467.317 758, 473 752.530, 473 746.433 C 473 742.947, 469.613 737.737, 466.578 736.555 C 462.400 734.926, 425.387 735.151, 422.301 736.824 C 416.691 739.864, 415.332 747.245, 419.304 753.102 L 421.609 756.500 411.563 764.792 C 401.632 772.988, 398.896 774.511, 395.329 773.826 C 393.600 773.493, 393.473 771.118, 393 730.412 L 392.500 687.350 390 683.699 C 388.625 681.692, 385.262 678.830, 382.526 677.340 C 378.230 675.001, 376.102 674.571, 366.928 674.193 C 356.312 673.756, 356.303 673.758, 352.999 676.710 M 674.096 675.240 C 669.925 677.427, 667.490 681.694, 667.597 686.631 C 667.772 694.707, 670.587 696.747, 685.500 699.606 C 686.847 699.864, 695.667 712.280, 712.500 737.612 C 726.250 758.305, 737.801 776.316, 738.169 777.637 C 738.536 778.958, 738.536 790.042, 738.169 802.269 L 737.500 824.500 731.068 825.115 C 725.315 825.664, 724.287 826.111, 721.318 829.350 C 718.636 832.276, 718.003 833.789, 718.015 837.235 C 718.032 842.312, 719.559 845.609, 723.116 848.249 C 725.554 850.059, 727.533 850.188, 752.299 850.155 C 774.488 850.126, 779.369 849.861, 781.916 848.543 C 790.245 844.236, 789.920 830.563, 781.393 826.516 C 779.636 825.682, 776.183 825, 773.721 825 C 771.082 825, 768.763 824.419, 768.070 823.585 C 767.225 822.567, 766.981 815.626, 767.198 798.835 L 767.500 775.500 776.630 762.500 C 781.651 755.350, 793.192 738.205, 802.277 724.400 L 818.795 699.300 823.415 698.667 C 829.919 697.775, 833.459 695.660, 835.442 691.480 C 838.694 684.628, 834.866 676.259, 827.651 674.449 C 826.444 674.146, 814.337 674.033, 800.746 674.199 L 776.035 674.500 772.767 677.769 C 769.939 680.599, 769.500 681.718, 769.500 686.096 C 769.500 690.621, 769.877 691.499, 773.084 694.438 C 775.583 696.728, 778.082 697.935, 781.334 698.423 C 783.900 698.808, 786 699.370, 786 699.672 C 786 700.511, 776.468 716.183, 768.466 728.500 C 759.334 742.557, 753.207 750.246, 751.818 749.388 C 750.740 748.721, 720.239 702.787, 719.369 700.519 C 719.084 699.778, 720.925 698.887, 724.307 698.131 C 735.799 695.559, 740.323 684.518, 732.828 677.333 L 729.872 674.500 703.186 674.240 C 683.234 674.046, 675.893 674.298, 674.096 675.240 M 1591.763 675.508 C 1588.213 677.508, 1586 681.884, 1586 686.903 C 1586 694.880, 1590.046 699, 1597.879 699 C 1605.452 699, 1605 694.905, 1605 763.449 C 1605 811.294, 1604.726 824.975, 1603.750 825.755 C 1603.063 826.305, 1599.837 826.966, 1596.582 827.224 C 1591.495 827.627, 1590.266 828.138, 1587.832 830.862 C 1585.595 833.365, 1585 834.995, 1585 838.616 C 1585 842.496, 1585.522 843.722, 1588.400 846.600 C 1590.270 848.470, 1592.858 850.023, 1594.150 850.051 C 1595.443 850.079, 1605.572 850.111, 1616.661 850.123 C 1638.953 850.146, 1641.624 849.561, 1644.483 844.033 C 1648.523 836.221, 1642.941 827, 1634.172 827 C 1632.562 827, 1630.678 826.317, 1629.985 825.482 C 1628.991 824.284, 1628.807 809.690, 1629.113 756.232 L 1629.500 688.500 1626.987 684.013 C 1622.987 676.868, 1617.891 674.606, 1605 674.253 C 1596.974 674.034, 1593.855 674.329, 1591.763 675.508 M 273.131 734.475 C 257.218 738.093, 243 748.722, 243 757 C 243 762.907, 248.750 768, 255.417 768 C 258.183 768, 260.048 767.010, 264.159 763.359 C 270.565 757.670, 275.986 755.180, 283.732 754.370 C 291.212 753.588, 298.040 756.244, 300.429 760.863 C 302.311 764.502, 302.493 772.023, 300.750 774.125 C 300.063 774.954, 294.775 776.664, 289 777.924 C 276.795 780.587, 264.917 783.937, 256.476 787.095 C 252.217 788.688, 248.916 790.924, 244.917 794.923 C 237.778 802.062, 235.550 808.081, 236.214 818.434 C 238.039 846.863, 271.868 861.728, 301.465 847.105 L 309.430 843.170 312.750 846.085 C 314.576 847.688, 316.391 849.020, 316.785 849.044 C 317.178 849.068, 319.525 849.486, 322 849.973 C 327.621 851.080, 334.695 849.636, 337.761 846.755 C 340.890 843.816, 342.215 838.361, 340.930 833.709 C 339.760 829.473, 336.526 826.933, 331.198 826.067 C 325.708 825.175, 325.421 823.013, 326.820 793.097 C 327.849 771.090, 327.809 766.537, 326.537 760.636 C 323.885 748.337, 317.132 740.087, 306.381 736.013 C 298.759 733.125, 282.397 732.368, 273.131 734.475 M 537 733.670 C 530.380 734.722, 519.906 739.449, 513.509 744.269 C 505.140 750.577, 497.527 761.237, 494.060 771.500 C 490.486 782.083, 489.987 800.610, 492.978 811.693 C 498.476 832.070, 514.290 847.227, 534.500 851.489 C 555.059 855.825, 576.371 850.211, 590.627 836.704 C 597.351 830.334, 597.500 830.083, 597.500 825.162 C 597.500 820.967, 597.015 819.626, 594.585 817.089 C 591.183 813.538, 585.987 811.553, 582.766 812.573 C 581.520 812.967, 577.825 815.709, 574.556 818.666 C 566.157 826.263, 559.605 829.238, 550.054 829.791 C 539.061 830.427, 532.661 828.371, 525.625 821.941 C 519.297 816.157, 516 809.006, 516 801.065 L 516 796.205 548.250 795.802 C 576.215 795.453, 581.031 795.167, 584.500 793.647 C 600.746 786.527, 601.167 766.095, 585.417 749.083 C 574.274 737.048, 554.782 730.843, 537 733.670 M 874 734.079 C 856.087 736.409, 839.725 747.186, 831.121 762.323 C 821.210 779.757, 820.875 804.457, 830.304 822.500 C 837.082 835.470, 851.472 846.527, 866.644 850.423 C 874.438 852.423, 889.521 852.437, 897.947 850.451 C 918.340 845.644, 934.120 830.009, 939.423 809.356 C 941.428 801.543, 941.448 785.527, 939.463 777.103 C 932.767 748.696, 904.492 730.114, 874 734.079 M 1355.120 734.127 C 1349.148 735.119, 1339.360 739.923, 1335.979 743.522 L 1333.785 745.858 1330.142 742.038 C 1324.075 735.674, 1308.213 732.795, 1299.432 736.464 C 1293.683 738.866, 1291.219 747.655, 1294.510 754.020 C 1296.301 757.482, 1298.810 759, 1302.743 759 C 1309.218 759, 1309.058 758.057, 1308.765 794.500 L 1308.500 827.500 1303.017 828.169 C 1295.682 829.064, 1292 832.882, 1292 839.593 C 1292 843.301, 1292.547 844.701, 1294.923 847.077 L 1297.846 850 1319.407 850 L 1340.968 850 1344.234 847.082 C 1347.124 844.500, 1347.500 843.569, 1347.500 838.995 C 1347.500 834.595, 1347.091 833.475, 1344.746 831.458 C 1343.231 830.155, 1340.306 828.809, 1338.246 828.467 C 1336.186 828.124, 1333.909 827.657, 1333.187 827.429 C 1332.137 827.098, 1331.936 822.035, 1332.187 802.257 C 1332.475 779.510, 1332.672 777.127, 1334.623 772.911 C 1340.714 759.742, 1357.819 752, 1367.015 758.250 C 1368.836 759.487, 1371.265 762.300, 1372.413 764.500 C 1374.369 768.248, 1374.520 770.373, 1374.817 798.250 L 1375.134 828 1371.468 828 C 1364.539 828, 1359.369 831.917, 1358.928 837.500 C 1358.548 842.312, 1359.180 844.334, 1361.923 847.077 L 1364.846 850 1385.489 850 C 1398.722 850, 1406.915 849.599, 1408.316 848.883 C 1412.179 846.907, 1413.954 843.765, 1413.978 838.861 C 1414.009 832.382, 1411.806 829.999, 1404.422 828.525 L 1398.500 827.343 1398.231 804.494 C 1397.896 776.053, 1398.483 773.357, 1406.832 765.008 C 1413.405 758.435, 1420.526 755.405, 1427.273 756.310 C 1432.721 757.041, 1436.013 759.630, 1438.951 765.498 C 1441.325 770.241, 1441.414 771.206, 1441.825 796.631 C 1442.059 811.062, 1441.960 824.024, 1441.606 825.435 C 1441.067 827.582, 1440.387 828, 1437.431 828 C 1430.694 828, 1425 833.298, 1425 839.567 C 1425 842.598, 1428.081 847.716, 1430.595 848.861 C 1432.202 849.594, 1440.348 850, 1453.412 850 C 1472.269 850, 1473.915 849.855, 1476.293 847.984 C 1479.940 845.115, 1481.467 839.944, 1479.988 835.465 C 1478.638 831.373, 1475.361 828.905, 1470.164 828.065 L 1466.500 827.473 1465.867 817.487 C 1465.520 811.994, 1465.182 798.707, 1465.117 787.960 C 1464.989 766.618, 1463.986 760.419, 1459.251 751.719 C 1456.105 745.939, 1449.841 740.132, 1443.216 736.856 C 1439.233 734.886, 1436.946 734.521, 1428.500 734.512 C 1419.772 734.501, 1417.801 734.832, 1413 737.114 C 1406.505 740.202, 1401.340 744.207, 1396.716 749.742 L 1393.358 753.760 1390.620 749.432 C 1385.333 741.075, 1377.633 735.958, 1367.535 734.091 C 1364.289 733.491, 1361.378 733.053, 1361.066 733.117 C 1360.755 733.181, 1358.079 733.636, 1355.120 734.127 M 1703.782 734.553 C 1683.761 739.407, 1667.009 757.306, 1662.479 778.685 C 1655.134 813.346, 1673.621 844.905, 1705.219 851.649 C 1718.158 854.410, 1735.784 852.296, 1747.369 846.592 C 1754.027 843.314, 1764.578 834.717, 1766.496 831.007 C 1769.850 824.521, 1767.205 816.749, 1760.571 813.601 C 1755.341 811.119, 1751.775 812.272, 1744.772 818.709 C 1741.485 821.732, 1736.254 825.396, 1733.147 826.852 C 1728.213 829.166, 1726.238 829.499, 1717.500 829.491 C 1709.063 829.484, 1706.840 829.131, 1703.278 827.235 C 1693.204 821.873, 1687.275 813.123, 1686.280 802.151 L 1685.739 796.189 1718.120 795.826 C 1748.282 795.487, 1750.808 795.321, 1755 793.398 C 1760.614 790.823, 1765.693 785.154, 1766.568 780.487 C 1769.320 765.819, 1760.209 748.988, 1744.720 740.126 C 1733.535 733.726, 1716.664 731.430, 1703.782 734.553 M 961 736.680 C 953.542 740.558, 951.936 750.873, 957.954 756.250 C 959.775 757.877, 962.187 759, 963.861 759 C 969.819 759, 970 759.907, 970 789.780 C 970 805.760, 970.455 819.078, 971.108 822.201 C 974.564 838.737, 986.156 849.444, 1003.531 852.149 C 1014.732 853.893, 1030.167 850.421, 1039.373 844.087 C 1043.797 841.044, 1043.938 841.016, 1044.989 842.979 C 1047.279 847.258, 1053.688 849.381, 1065.600 849.808 C 1078.162 850.259, 1081.846 849.132, 1084.483 844.033 C 1086.476 840.179, 1086.418 833.042, 1084.369 830.117 C 1082.364 827.254, 1077.203 825, 1072.655 825 C 1066.651 825, 1066.689 825.254, 1067.199 789.238 C 1067.454 771.232, 1067.266 754.700, 1066.780 752.500 C 1064.686 743.012, 1056.439 736.730, 1044.366 735.429 C 1033.861 734.297, 1027.344 738.018, 1026.308 745.739 C 1025.374 752.703, 1030.246 759, 1036.568 759 C 1042.750 759, 1043 760.054, 1043 786.132 C 1043 809.357, 1042.972 809.663, 1040.422 814.780 C 1037.397 820.851, 1033.511 824.395, 1026.192 827.760 C 1015.965 832.461, 1003.695 830.196, 999.222 822.781 C 994.835 815.509, 994.555 812.953, 994.845 782.832 C 995.149 751.226, 994.749 748.062, 989.724 742.338 C 985.577 737.616, 981.623 736.049, 972.198 735.395 C 965.969 734.963, 963.832 735.208, 961 736.680 M 1506.763 736.506 C 1505.257 737.356, 1503.344 739.367, 1502.513 740.976 C 1500.500 744.869, 1500.563 752.932, 1502.631 755.883 C 1504.623 758.728, 1509.790 761, 1514.268 761 C 1516.101 761, 1518.140 761.540, 1518.800 762.200 C 1519.681 763.081, 1520 771.570, 1520 794.165 C 1520 829.088, 1520.543 827, 1511.466 827 C 1507.493 827, 1506.295 827.505, 1503.400 830.400 C 1500.626 833.174, 1500 834.564, 1500 837.950 C 1500 843.349, 1502.171 847.414, 1505.873 848.947 C 1507.907 849.790, 1515.588 850.173, 1530.317 850.167 C 1554.390 850.156, 1556.499 849.683, 1559.365 843.643 C 1561.417 839.318, 1561.414 837.675, 1559.343 833.310 C 1557.578 829.592, 1554.044 827.519, 1547.750 826.510 C 1545.174 826.098, 1543.972 825.376, 1543.910 824.205 C 1543.860 823.267, 1543.887 806.525, 1543.970 787 L 1544.120 751.500 1541.310 746.021 C 1537.294 738.189, 1532.076 735.663, 1519.082 735.259 C 1511.855 735.034, 1508.827 735.341, 1506.763 736.506 M 539.333 754.896 C 533.357 756.438, 525.545 761.639, 521.755 766.599 C 517.131 772.651, 516.994 774.549, 521.125 775.375 C 525.252 776.200, 564.819 775.991, 567.905 775.128 C 575.485 773.007, 571.048 762.106, 560.534 757.016 C 555.701 754.677, 544.517 753.559, 539.333 754.896 M 1707.205 755.829 C 1704.293 756.871, 1700.243 759.065, 1698.205 760.705 C 1693.933 764.144, 1688 771.552, 1688 773.447 C 1688 774.162, 1689.673 775.015, 1691.750 775.358 C 1696.770 776.188, 1735.837 775.984, 1739 775.111 C 1742.734 774.081, 1742.936 768.959, 1739.442 763.916 C 1733.756 755.711, 1718.344 751.845, 1707.205 755.829 M 869.242 758.078 C 862.407 760.766, 854.666 768.341, 851.204 775.730 C 848.757 780.952, 848.500 782.592, 848.500 793 C 848.500 803.565, 848.727 804.962, 851.294 810.190 C 854.915 817.564, 863.245 825.237, 870.238 827.639 C 877.098 829.996, 887.902 829.996, 894.762 827.639 C 902.167 825.095, 909.929 817.735, 913.585 809.791 C 916.192 804.126, 916.481 802.455, 916.490 793 C 916.499 783.285, 916.265 782.003, 913.349 775.849 C 909.635 768.010, 904.242 762.279, 897.423 758.923 C 890.492 755.513, 876.809 755.103, 869.242 758.078 M 295 797.160 C 277.801 799.733, 264.251 804.964, 260.883 810.332 C 256.972 816.564, 260.443 825.360, 268.007 828.386 C 270.238 829.279, 274.880 830, 278.395 830 C 294.353 830, 303.251 821.265, 303.429 805.424 C 303.522 797.129, 302.421 796.050, 295 797.160"
        stroke="none" fill="#ec7c8c" fill-rule="evenodd" />
</svg>